<svg xmlns="http://www.w3.org/2000/svg" width="950" height="238" viewBox="0 0 950 238" version="1.1"><path d="M 212.667 81.667 C 212.300 82.033, 212 106.783, 212 136.667 L 212 191 220 191 L 228 191 228 165 L 228 139 249.500 139 L 271 139 271 132.500 L 271 126 249.500 126 L 228 126 228 110 L 228 94 252 94 L 276 94 276 87.500 L 276 81 244.667 81 C 227.433 81, 213.033 81.300, 212.667 81.667 M 305.013 102.713 C 300.442 114.696, 290.975 139.463, 283.976 157.750 L 271.250 191 279.509 191 L 287.768 191 292.634 176.987 L 297.500 162.974 321.891 163.237 L 346.282 163.500 349.656 173 C 351.511 178.225, 353.735 184.412, 354.597 186.750 L 356.165 191 364.083 191 C 368.437 191, 371.972 190.662, 371.938 190.250 C 371.905 189.838, 362.565 165.200, 351.184 135.500 L 330.491 81.500 321.908 81.213 L 313.325 80.927 305.013 102.713 M 387.667 81.667 C 387.300 82.033, 387 106.783, 387 136.667 L 387 191 394.990 191 L 402.979 191 403.240 146.866 L 403.500 102.732 426.873 146.866 L 450.246 191 460.623 191 L 471 191 471 136 L 471 81 463.510 81 L 456.020 81 455.760 126.025 L 455.500 171.050 431.646 126.025 L 407.792 81 398.063 81 C 392.712 81, 388.033 81.300, 387.667 81.667 M 547.667 81.667 C 547.300 82.033, 547 106.783, 547 136.667 L 547 191 554.500 191 L 562 191 562 144.333 C 562 118.667, 562.246 97.913, 562.547 98.214 C 562.848 98.514, 569.084 114.677, 576.406 134.130 L 589.717 169.500 597.645 169.787 L 605.573 170.074 619.244 133.787 L 632.915 97.500 632.957 144.250 L 633 191 640.500 191 L 648 191 648 136 L 648 81 637.035 81 C 627.605 81, 625.943 81.245, 625.163 82.750 C 624.665 83.713, 618.506 99.800, 611.479 118.500 C 604.451 137.200, 598.400 152.845, 598.033 153.267 C 597.666 153.689, 592.490 141.089, 586.531 125.267 C 580.573 109.445, 574.376 93.013, 572.761 88.750 L 569.825 81 559.079 81 C 553.169 81, 548.033 81.300, 547.667 81.667 M 677 135.987 L 677 191 712.500 191 L 748 191 748 184.500 L 748 178 720 178 L 692 178 692 158.500 L 692 139 718 139 L 744 139 744 132.500 L 744 126 718 126 L 692 126 692 110 L 692 94 719.548 94 L 747.095 94 746.798 87.750 L 746.500 81.500 711.750 81.237 L 677 80.974 677 135.987 M 772 136 L 772 191 807.500 191 L 843 191 843 184.500 L 843 178 815 178 L 787 178 787 158.500 L 787 139 813 139 L 839 139 839 132.500 L 839 126 813 126 L 787 126 787 110 L 787 94 814 94 L 841 94 841 87.500 L 841 81 806.500 81 L 772 81 772 136 M 851 87.500 L 851 94 870.500 94 L 890 94 890 142.500 L 890 191 898 191 L 906 191 906 142.500 L 906 94 925 94 L 944 94 944 87.500 L 944 81 897.500 81 L 851 81 851 87.500 M 312.241 123.300 C 307.148 137.160, 302.985 148.838, 302.991 149.250 C 302.996 149.662, 311.598 150, 322.107 150 C 336.972 150, 341.112 149.722, 340.752 148.750 C 340.499 148.063, 336.330 136.700, 331.490 123.500 C 326.649 110.300, 322.421 99.185, 322.094 98.800 C 321.767 98.415, 317.333 109.440, 312.241 123.300" stroke="none" fill="#040404" fill-rule="evenodd"/><path d="M 124.487 5.625 C 123.394 7.069, 121.600 9.881, 120.500 11.875 C 119.400 13.869, 118.271 15.725, 117.991 16 C 117.124 16.850, 112 24.928, 112 25.444 C 112 25.711, 109.496 29.812, 106.435 34.557 L 100.869 43.184 96.185 42.631 C 86.476 41.484, 82.455 40.854, 81 40.254 C 77.512 38.813, 60.155 35.309, 51.750 34.349 C 49.138 34.051, 47 33.400, 47 32.903 C 47 32.407, 44.840 32, 42.200 32 C 39.560 32, 36.954 31.554, 36.410 31.010 C 35.865 30.465, 33.187 29.754, 30.460 29.430 C 27.732 29.106, 24.600 28.455, 23.500 27.983 C 20.843 26.842, 14.651 25.889, 8.500 25.674 L 3.500 25.500 3.668 29.500 C 3.906 35.202, 5.808 45.773, 6.993 47.988 C 7.547 49.022, 8 51.672, 8 53.875 C 8 56.079, 8.450 58.160, 9 58.500 C 9.550 58.840, 10 61.251, 10 63.859 C 10 66.467, 10.406 69.028, 10.903 69.550 C 11.400 70.073, 12.040 72.525, 12.326 75 C 13.163 82.243, 14.953 91.340, 15.966 93.500 C 16.482 94.600, 17.117 97.750, 17.379 100.500 C 17.641 103.250, 18.373 108.200, 19.007 111.500 C 19.641 114.800, 20.525 119.525, 20.973 122 C 22.801 132.113, 24.272 138.595, 25.112 140.236 C 25.600 141.191, 26 144.202, 26 146.927 C 26 149.652, 26.450 152.160, 27 152.500 C 27.550 152.840, 28 154.660, 28 156.545 C 28 159.823, 28.605 163.066, 31.072 173 C 31.686 175.475, 32.596 179.862, 33.094 182.750 C 33.592 185.637, 34.450 190.475, 35 193.500 C 35.550 196.525, 36.406 201.362, 36.901 204.250 C 39.345 218.486, 40.368 223, 41.148 223 C 41.617 223, 42 224.993, 42 227.429 C 42 230.032, 42.618 232.475, 43.500 233.357 C 44.325 234.182, 45 235.339, 45 235.929 C 45 236.518, 45.450 237, 46 237 C 46.550 237, 47 236.432, 47 235.737 C 47 235.043, 48.125 233.630, 49.500 232.597 C 50.875 231.565, 52 230.368, 52 229.937 C 52 229.506, 53.237 227.869, 54.750 226.299 C 56.262 224.729, 58.850 221.690, 60.500 219.546 C 62.150 217.401, 64.063 215.083, 64.750 214.395 C 65.437 213.706, 66.002 212.773, 66.005 212.321 C 66.007 211.870, 67.565 209.807, 69.466 207.737 C 71.366 205.668, 74.270 202.068, 75.918 199.737 C 77.566 197.407, 80.508 193.705, 82.457 191.511 C 84.406 189.317, 86 187.132, 86 186.655 C 86 186.178, 87.125 184.903, 88.500 183.821 C 89.875 182.740, 91 181.213, 91 180.427 C 91 179.642, 91.450 179, 92 179 C 92.550 179, 93 178.553, 93 178.008 C 93 176.684, 97.116 172, 98.279 172 C 99.203 172, 105.006 169.620, 108.236 167.916 C 109.191 167.412, 110.852 167, 111.927 167 C 113.002 167, 114.160 166.550, 114.500 166 C 114.840 165.450, 115.955 165, 116.978 165 C 118.001 165, 120.180 164.230, 121.820 163.289 L 124.802 161.577 125.216 149.539 C 125.444 142.917, 125.236 136.970, 124.753 136.323 C 123.834 135.090, 118.108 135.474, 114.500 137.012 C 113.400 137.480, 111.150 138.057, 109.500 138.294 C 105.660 138.844, 97.092 141.020, 94.500 142.103 C 93.400 142.563, 90.925 143.065, 89 143.219 L 85.500 143.500 85.224 158.822 C 84.958 173.551, 84.851 174.248, 82.474 176.812 C 81.113 178.279, 80 180.047, 80 180.740 C 80 181.433, 79.550 182, 79 182 C 78.450 182, 78 182.590, 78 183.311 C 78 184.033, 77.213 185.495, 76.250 186.561 C 73.655 189.436, 67 199.813, 67 200.985 C 67 201.543, 66.652 202, 66.227 202 C 65.802 202, 64.607 203.575, 63.570 205.500 C 62.533 207.425, 61.306 209, 60.843 209 C 60.379 209, 60 209.520, 60 210.156 C 60 210.791, 58.805 212.877, 57.345 214.792 C 55.885 216.706, 53.637 220.348, 52.349 222.886 C 50.013 227.490, 50.008 227.493, 50.004 224.309 C 50.002 222.554, 50.450 220.840, 51 220.500 C 51.550 220.160, 52.014 218.896, 52.032 217.691 C 52.049 216.486, 52.724 214.626, 53.532 213.559 C 54.339 212.491, 55 210.380, 55 208.868 C 55 207.355, 55.450 205.840, 56 205.500 C 56.550 205.160, 57 203.360, 57 201.500 C 57 199.640, 57.450 197.840, 58 197.500 C 58.550 197.160, 59 196.002, 59 194.927 C 59 193.852, 59.424 192.191, 59.941 191.236 C 60.459 190.281, 61.655 186.800, 62.598 183.500 C 63.542 180.200, 64.693 177.073, 65.157 176.550 C 65.621 176.028, 66 174.142, 66 172.359 C 66 170.576, 66.400 168.871, 66.890 168.568 C 67.379 168.266, 67.998 166.552, 68.266 164.759 C 68.533 162.967, 69.708 159.031, 70.876 156.014 C 72.044 152.997, 73 149.824, 73 148.963 C 73 145.367, 75.491 142.160, 78.735 141.582 C 80.531 141.262, 83.579 140.725, 85.509 140.390 C 87.439 140.054, 89.266 139.379, 89.568 138.890 C 89.871 138.400, 91.329 137.997, 92.809 137.994 C 94.289 137.990, 96.789 137.315, 98.364 136.494 C 99.940 135.672, 102.726 135, 104.555 135 C 106.385 135, 108.160 134.550, 108.500 134 C 108.840 133.450, 110.409 133, 111.986 133 C 116.274 133, 118 128.740, 118 118.157 C 118 113.462, 118.430 107.118, 118.956 104.060 C 120.701 93.916, 123.761 62.312, 124.626 45.500 C 124.937 39.450, 125.599 34.072, 126.096 33.550 C 126.593 33.027, 127 27.879, 127 22.109 C 127 12.670, 127.147 11.812, 128.468 13.559 C 129.276 14.626, 129.951 16.519, 129.968 17.764 C 129.986 19.009, 130.397 20.809, 130.882 21.764 C 131.949 23.862, 133.969 31.280, 134.694 35.759 C 134.984 37.552, 135.621 39.266, 136.110 39.568 C 136.600 39.871, 137 41.072, 137 42.238 C 137 43.404, 137.425 45.740, 137.945 47.429 C 138.465 49.118, 139.616 53.200, 140.504 56.500 C 141.391 59.800, 142.541 63.281, 143.059 64.236 C 143.576 65.191, 144 67.239, 144 68.786 C 144 70.334, 144.502 72.102, 145.117 72.717 C 145.888 73.488, 146.023 77.182, 145.554 84.667 C 145.181 90.625, 144.791 98.200, 144.688 101.500 L 144.500 107.500 150.500 107.289 C 153.800 107.174, 159.875 106.724, 164 106.289 C 171.278 105.523, 171.552 105.397, 173.248 102 C 174.334 99.827, 174.997 96.206, 174.998 92.450 C 174.999 89.123, 175.483 85.917, 176.073 85.327 C 176.663 84.737, 177 82.735, 176.823 80.877 L 176.500 77.500 166.901 77.216 L 157.301 76.931 155.444 71.466 C 154.422 68.460, 153.229 66, 152.793 66 C 152.357 66, 152 64.869, 152 63.486 C 152 62.104, 151.603 60.191, 151.117 59.236 C 150.631 58.281, 149.683 56.150, 149.011 54.500 C 147.038 49.656, 144.845 44.630, 143.889 42.764 C 143.400 41.809, 143 40.382, 143 39.593 C 143 38.804, 141.425 34.424, 139.500 29.860 C 137.575 25.295, 136 20.883, 136 20.055 C 136 19.226, 138.885 23.038, 142.411 28.524 C 145.937 34.011, 149.312 39.044, 149.911 39.708 C 150.510 40.372, 151 41.385, 151 41.958 C 151 42.531, 151.338 43.005, 151.750 43.011 C 152.162 43.018, 153.356 44.810, 154.403 46.995 C 155.449 49.179, 157.137 51.719, 158.153 52.638 C 159.708 54.046, 160 55.848, 160 64.041 L 160 73.773 163.250 74.494 C 165.037 74.890, 170.394 75.422, 175.153 75.676 L 183.807 76.137 184.452 70.318 C 184.807 67.118, 185.188 61.350, 185.299 57.500 L 185.500 50.500 182.500 50.215 C 180.850 50.058, 178.600 49.548, 177.500 49.081 C 176.400 48.614, 172.800 47.414, 169.500 46.413 C 163.241 44.516, 161.447 43.142, 156.553 36.500 C 154.932 34.300, 153.354 32.275, 153.047 32 C 152.740 31.725, 151.164 29.700, 149.546 27.500 C 147.927 25.300, 145.792 22.772, 144.801 21.883 C 143.811 20.993, 143 19.984, 143 19.640 C 143 18.123, 128.773 3, 127.346 3 C 126.867 3, 125.580 4.181, 124.487 5.625 M 120.160 23.750 C 120.072 24.988, 119.550 26, 119 26 C 118.450 26, 118 26.906, 118 28.014 C 118 29.121, 117.601 30.809, 117.112 31.764 C 115.768 34.392, 110.888 45.231, 110.027 47.500 C 108.123 52.515, 107.125 54.886, 104.651 60.272 C 102.216 65.575, 102 67.100, 102 79.022 L 102 92 98.443 92 C 96.486 92, 92.999 92.434, 90.693 92.965 C 87.036 93.806, 77.542 94.511, 40.154 96.720 L 31.808 97.213 32.450 99.857 C 32.804 101.310, 33.501 107.450, 34 113.500 C 34.499 119.550, 35.607 130.125, 36.460 137 C 38.817 155.971, 41.791 188.681, 42.599 204.500 C 42.907 210.550, 43.574 215.927, 44.080 216.450 C 44.586 216.972, 45.060 219.672, 45.134 222.450 L 45.267 227.500 46.076 223 C 47.672 214.122, 49.227 207.470, 50.106 205.764 C 50.598 204.809, 51 202.311, 51 200.214 C 51 198.116, 51.404 195.972, 51.898 195.450 C 52.391 194.927, 53.035 192.700, 53.329 190.500 C 54.334 182.963, 56.069 174.740, 57.034 172.936 C 57.565 171.944, 58 169.527, 58 167.566 C 58 165.605, 58.450 164, 59 164 C 59.550 164, 60 161.840, 60 159.200 C 60 156.560, 60.505 153.895, 61.121 153.279 C 61.870 152.530, 62.020 149.886, 61.573 145.329 C 61.204 141.573, 60.488 131.975, 59.982 124 C 59.476 116.025, 58.783 107.426, 58.441 104.890 C 57.874 100.678, 58.023 100.215, 60.160 99.527 C 61.447 99.113, 71.866 98.243, 83.313 97.594 C 99.507 96.676, 104.328 96.090, 105.037 94.957 C 105.537 94.156, 106.424 91.025, 107.007 88 C 107.591 84.975, 108.503 81.719, 109.034 80.764 C 109.565 79.809, 110 77.536, 110 75.714 C 110 73.891, 110.406 71.972, 110.903 71.450 C 111.400 70.927, 112.042 68.475, 112.330 66 C 112.619 63.525, 113.322 59.475, 113.893 57 C 114.464 54.525, 115.517 49.943, 116.232 46.818 C 116.946 43.692, 117.862 40.805, 118.266 40.401 C 118.670 39.997, 119 37.582, 119 35.033 C 119 32.485, 119.483 29.917, 120.073 29.327 C 120.663 28.737, 120.960 26.735, 120.733 24.877 C 120.501 22.979, 120.250 22.486, 120.160 23.750 M 161.450 107.922 C 160.928 108.429, 157.350 109.097, 153.500 109.407 C 135.729 110.834, 132.418 111.252, 131.250 112.215 C 130.440 112.882, 129.994 116.106, 129.982 121.372 C 129.972 125.843, 129.543 133.506, 129.028 138.401 C 127.817 149.916, 129.299 152.938, 134.764 150.097 C 135.719 149.601, 138.525 148.667, 141 148.022 C 143.475 147.377, 146.774 146.208, 148.331 145.425 C 149.888 144.641, 152.251 144, 153.581 144 C 154.911 144, 156 143.550, 156 143 C 156 142.450, 157.238 141.967, 158.750 141.927 C 160.262 141.887, 162.850 141.065, 164.500 140.100 C 167.275 138.478, 167.523 137.864, 167.803 131.923 C 167.969 128.390, 168.532 125.073, 169.053 124.550 C 169.574 124.028, 170 119.865, 170 115.300 L 170 107 166.200 107 C 164.110 107, 161.972 107.415, 161.450 107.922" stroke="none" fill="#5cc4f4" fill-rule="evenodd"/></svg>